<?xml version="1.0" encoding="UTF-8"?>
<svg width="143px" height="50px" viewBox="0 0 143 50" version="1.1" xmlns="http://www.w3.org/2000/svg" xmlns:xlink="http://www.w3.org/1999/xlink">
    <!-- Generator: Sketch 55.2 (78181) - https://sketchapp.com -->
    <title>Group Copy@2x</title>
    <desc>Created with Sketch.</desc>
    <defs>
        <polygon id="path-1" points="0.194193548 11.8964516 10.7564516 11.9270968 6.28 27.8377419 19.7174194 27.8377419 27.5316129 0.0422580645 3.66645161 0.0406451613"></polygon>
        <linearGradient x1="-15.9543877%" y1="87.0835648%" x2="150.088756%" y2="-18.5819691%" id="linearGradient-3">
            <stop stop-color="#3333FF" offset="0%"></stop>
            <stop stop-color="#FF3397" offset="100%"></stop>
        </linearGradient>
        <polygon id="path-4" points="7.84064516 0.238387097 0.0267741935 28.0341935 23.8919355 28.0358065 27.363871 16.1796774 16.8019355 16.1493548 21.2783871 0.238387097"></polygon>
        <linearGradient x1="-107.893154%" y1="155.369733%" x2="58.1441773%" y2="49.7054255%" id="linearGradient-6">
            <stop stop-color="#3333FF" offset="0%"></stop>
            <stop stop-color="#FF3397" offset="100%"></stop>
        </linearGradient>
    </defs>
    <g id="Page-1" stroke="none" stroke-width="1" fill="none" fill-rule="evenodd">
        <g id="Landing-Page" transform="translate(-156.000000, -20.000000)">
            <g id="Group-Copy" transform="translate(156.000000, 20.000000)">
                <polygon id="Fill-136" fill="#212020" points="36.1505484 40.2510645 36.1505484 49.5088065 34.6499032 49.5088065 34.6499032 40.2510645 31.043129 40.2510645 31.043129 38.8788065 39.7728065 38.8788065 39.7728065 40.2510645"></polygon>
                <polygon id="Fill-137" fill="#212020" points="43.2186452 49.5087419 43.2186452 38.8787419 50.7515484 38.8787419 50.7515484 40.251 44.7192903 40.251 44.7192903 43.2526129 48.5647742 43.2526129 48.5647742 44.5451935 44.7192903 44.5451935 44.7192903 48.1361613 50.9112258 48.1361613 50.9112258 49.5087419"></polygon>
                <path d="M82.8692903,40.3309355 L80.9544516,45.2473871 L84.7367097,45.2473871 L82.8692903,40.3309355 Z M86.3647742,49.5086774 L85.231871,46.5567419 L80.4438065,46.5567419 L79.294129,49.5086774 L77.7302581,49.5086774 L82.0560645,38.8786774 L83.6996129,38.8786774 L88.0409032,49.5086774 L86.3647742,49.5086774 Z" id="Fill-138" fill="#212020"></path>
                <polygon id="Fill-139" fill="#212020" points="91.2296129 49.5087419 91.2296129 38.8787419 92.7138065 38.8787419 92.7138065 48.1361613 98.6196129 48.1361613 98.6196129 49.5087419"></polygon>
                <g id="Group-149" transform="translate(54.516129, 38.387097)" fill="#212020">
                    <path d="M51.6010323,1.70551613 C49.3342581,1.70551613 47.9774839,3.39616129 47.9774839,5.80712903 C47.9774839,8.21680645 49.3342581,9.92454839 51.6010323,9.92454839 C53.8510323,9.92454839 55.2232903,8.21680645 55.2232903,5.80712903 C55.2232903,3.39616129 53.8510323,1.70551613 51.6010323,1.70551613 M51.6010323,11.3126129 C48.4239355,11.3126129 46.4139355,8.93583871 46.4139355,5.80712903 C46.4139355,2.67874194 48.4239355,0.300354839 51.6010323,0.300354839 C54.7771613,0.300354839 56.8042581,2.67874194 56.8042581,5.80712903 C56.8042581,8.93583871 54.7771613,11.3126129 51.6010323,11.3126129" id="Fill-140"></path>
                    <path d="M61.4769032,5.80722581 C61.4769032,8.29658065 62.8662581,9.95722581 65.1004516,9.95722581 C66.9994839,9.95722581 68.4046452,8.80754839 68.5472258,6.97141935 L65.1004516,6.97141935 L65.1004516,5.66303226 L69.9681935,5.66303226 C69.9998065,5.87141935 70.0323871,6.12690323 70.0323871,6.46077419 C70.0323871,9.03141935 68.2446452,11.3127097 65.1162581,11.3127097 C61.9559355,11.3127097 59.9130323,8.98303226 59.9130323,5.79141935 C59.9130323,2.58303226 61.9559355,0.300451613 65.0691613,0.300451613 C66.887871,0.300451613 68.2920645,1.06658065 69.2507742,2.43883871 L68.0691613,3.25335484 C67.4143226,2.24754839 66.4246452,1.67270968 65.1004516,1.67270968 C62.8336774,1.67270968 61.4769032,3.34916129 61.4769032,5.80722581" id="Fill-142"></path>
                    <polygon id="Fill-144" points="73.6835484 11.1216129 75.1674194 11.1216129 75.1674194 0.491612903 73.6835484 0.491612903"></polygon>
                    <path d="M87.1201613,3.25351613 C86.4653226,2.24770968 85.4762903,1.67287097 84.151129,1.67287097 C81.9485484,1.67287097 80.5275806,3.31770968 80.5275806,5.79158065 C80.5275806,8.29674194 81.9643548,9.9573871 84.1195161,9.9573871 C85.4282258,9.9573871 86.4653226,9.33383871 87.1201613,8.31254839 L88.3485484,9.11125806 C87.4395161,10.4838387 85.9872581,11.3125484 84.1353226,11.3125484 C81.0227419,11.3125484 78.9640323,8.99867742 78.9640323,5.8073871 C78.9640323,2.62996774 81.0227419,0.300290323 84.1195161,0.300290323 C85.938871,0.300290323 87.3424194,1.06641935 88.301129,2.439 L87.1201613,3.25351613 Z" id="Fill-146"></path>
                    <path d="M6.22364516,6.57335484 C7.4846129,6.12690323 8.40912903,5.08819355 8.40912903,3.60432258 C8.40912903,1.72109677 7.03687097,0.491419355 4.85106452,0.491419355 L0.190419355,0.491419355 L0.190419355,11.1217419 L1.69106452,11.1217419 L1.69106452,7.52141935 L1.69041935,7.52141935 L1.69041935,4.8323871 L1.69106452,4.8323871 L1.69106452,1.864 L4.80267742,1.864 C6.03106452,1.864 6.8613871,2.58303226 6.8613871,3.71593548 C6.8613871,4.80141935 6.07977419,5.53625806 4.85106452,5.53625806 L3.243,5.53625806 L3.243,6.84432258 L4.73848387,6.84432258 L7.00558065,11.1217419 L8.69751613,11.1217419 L6.22364516,6.57335484 Z" id="Fill-147"></path>
                    <path d="M17.9433226,6.57335484 C19.2042903,6.12690323 20.1288065,5.08819355 20.1288065,3.60432258 C20.1288065,1.72109677 18.7565484,0.491419355 16.5707419,0.491419355 L11.9097742,0.491419355 L11.9097742,11.1217419 L13.4107419,11.1217419 L13.4107419,7.52141935 L13.4100968,7.52141935 L13.4100968,4.8323871 L13.4107419,4.8323871 L13.4107419,1.864 L16.5223548,1.864 C17.7504194,1.864 18.5810645,2.58303226 18.5810645,3.71593548 C18.5810645,4.80141935 17.799129,5.53625806 16.5707419,5.53625806 L14.9626774,5.53625806 L14.9626774,6.84432258 L16.4581613,6.84432258 L18.7249355,11.1217419 L20.416871,11.1217419 L17.9433226,6.57335484 Z" id="Fill-148"></path>
                </g>
                <g id="Group-152" transform="translate(0.000000, 16.129032)">
                    <mask id="mask-2" fill="white">
                        <use xlink:href="#path-1"></use>
                    </mask>
                    <g id="Clip-151"></g>
                    <polygon id="Fill-150" fill="url(#linearGradient-3)" mask="url(#mask-2)" points="0.194193548 11.8964516 10.7564516 11.9270968 6.28 27.8377419 19.7174194 27.8377419 27.5316129 0.0422580645 3.66645161 0.0406451613"></polygon>
                </g>
                <g id="Group-155" transform="translate(28.064516, 0.000000)">
                    <mask id="mask-5" fill="white">
                        <use xlink:href="#path-4"></use>
                    </mask>
                    <g id="Clip-154"></g>
                    <polygon id="Fill-153" fill="url(#linearGradient-6)" mask="url(#mask-5)" points="7.84064516 0.238387097 0.0267741935 28.0341935 23.8919355 28.0358065 27.363871 16.1796774 16.8019355 16.1493548 21.2783871 0.238387097"></polygon>
                </g>
            </g>
        </g>
    </g>
</svg>